<?xml version="1.0" encoding="UTF-8" standalone="no"?>
<!-- Created with Inkscape (http://www.inkscape.org/) -->

<svg
   xmlns:dc="http://purl.org/dc/elements/1.1/"
   xmlns:cc="http://creativecommons.org/ns#"
   xmlns:rdf="http://www.w3.org/1999/02/22-rdf-syntax-ns#"
   xmlns:svg="http://www.w3.org/2000/svg"
   xmlns="http://www.w3.org/2000/svg"
   xmlns:sodipodi="http://sodipodi.sourceforge.net/DTD/sodipodi-0.dtd"
   xmlns:inkscape="http://www.inkscape.org/namespaces/inkscape"
   width="1000"
   height="674.4375"
   id="svg11841"
   version="1.1"
   inkscape:version="0.48.2 r9819"
   sodipodi:docname="menu_simplified.svg">
  <defs
     id="defs11843" />
  <sodipodi:namedview
     id="base"
     pagecolor="#ffffff"
     bordercolor="#666666"
     borderopacity="1.0"
     inkscape:pageopacity="0.0"
     inkscape:pageshadow="2"
     inkscape:zoom="0.35"
     inkscape:cx="502.51233"
     inkscape:cy="677.11039"
     inkscape:document-units="px"
     inkscape:current-layer="layer1"
     showgrid="false"
     inkscape:window-width="1050"
     inkscape:window-height="733"
     inkscape:window-x="126"
     inkscape:window-y="20"
     inkscape:window-maximized="0"
     fit-margin-top="0"
     fit-margin-left="0"
     fit-margin-right="0"
     fit-margin-bottom="0" />
  <metadata
     id="metadata11846">
    <rdf:RDF>
      <cc:Work
         rdf:about="">
        <dc:format>image/svg+xml</dc:format>
        <dc:type
           rdf:resource="http://purl.org/dc/dcmitype/StillImage" />
        <dc:title></dc:title>
      </cc:Work>
    </rdf:RDF>
  </metadata>
  <g
     inkscape:label="Layer 1"
     inkscape:groupmode="layer"
     id="layer1"
     transform="translate(278.11139,-1808.9763)">
    <path
       style="fill:#4e4e4e;fill-opacity:0.96470588;stroke:none"
       d="M 0,706.8125 0,1043.9375 450.03125,1043.9375 C 450.64302,1016.8549 472.77048,995.09375 500,995.09375 L 500,706.8125 0,706.8125 z"
       transform="translate(-278.11139,1102.1638)"
       id="overlaymenu"
       inkscape:connector-curvature="0"
       inkscape:label="#rect13009" />
    <path
       style="fill:#e9af7d;fill-opacity:0.95294118;stroke:none"
       d="M 0,1044.0938 0,1381.25 1000,1381.25 1000,1044.0938 549.96875,1044.0938 C 549.97522,1044.425 550,1044.761 550,1045.0938 550,1072.708 527.61424,1095.0938 500,1095.0938 472.38576,1095.0938 450,1072.708 450,1045.0938 450,1044.761 450.02478,1044.425 450.03125,1044.0938 L 0,1044.0938 z"
       transform="translate(-278.11139,1102.1638)"
       id="datamenu"
       inkscape:label="#rect13011"
       inkscape:connector-curvature="0" />
    <path
       style="fill:#4e4e4e;fill-opacity:0.96470588;stroke:none"
       d="M 500,706.8125 500,995.09375 C 527.22952,995.09375 549.35698,1016.8549 549.96875,1043.9375 L 1000,1043.9375 1000,706.8125 500,706.8125 z"
       transform="translate(-278.11139,1102.1638)"
       id="filtermenu"
       inkscape:label="#rect13035"
       inkscape:connector-curvature="0" />
  </g>
</svg>
